<svg width="24" height="25" viewBox="0 0 24 25" fill="none" xmlns="http://www.w3.org/2000/svg">
<path d="M17 18.5C17 17.9696 16.7893 17.4609 16.4142 17.0858C16.0391 16.7107 15.5304 16.5 15 16.5H9C8.46957 16.5 7.96086 16.7107 7.58579 17.0858C7.21071 17.4609 7 17.9696 7 18.5" stroke="black" stroke-width="2" stroke-linecap="round" stroke-linejoin="round"/>
<path d="M19 4.5H5C3.89543 4.5 3 5.39543 3 6.5V20.5C3 21.6046 3.89543 22.5 5 22.5H19C20.1046 22.5 21 21.6046 21 20.5V6.5C21 5.39543 20.1046 4.5 19 4.5Z" stroke="black" stroke-width="2" stroke-linecap="round" stroke-linejoin="round"/>
<path d="M12 12.5C13.1046 12.5 14 11.6046 14 10.5C14 9.39543 13.1046 8.5 12 8.5C10.8954 8.5 10 9.39543 10 10.5C10 11.6046 10.8954 12.5 12 12.5Z" stroke="black" stroke-width="2" stroke-linecap="round" stroke-linejoin="round"/>
<path d="M8 2.5V4.5M16 2.5V4.5" stroke="black" stroke-width="2" stroke-linecap="round" stroke-linejoin="round"/>
</svg>
